# xmcd
#
# Track frame offsets: 
#        187
#        12247
#        24162
#        35175
#        49082
#        60167
#        71125
#        81732
#        96415
#        110282
#
# Disc length: 1622 seconds
#
# Revision: 1
# Processed by: cddbd v1.5.1PL2 Copyright (c) Steve Scherf et al.
# Submitted via: ExactAudioCopy v0.95b3
#
DISCID=8206540a
DTITLE=Silver Sun - You Are Here
DYEAR=1997
DGENRE=BritPop
TTITLE0=Last Day
TTITLE1=Lava
TTITLE2=Trickle Down
TTITLE3=Thickshake
TTITLE4=Captain
TTITLE5=Top Trumps
TTITLE6=There Will Never Be Another Me
TTITLE7=Gossip
TTITLE8=Changing
TTITLE9=Streets Are Paved With Tarmac
EXTD=
EXTT0=
EXTT1=
EXTT2=
EXTT3=
EXTT4=
EXTT5=
EXTT6=
EXTT7=
EXTT8=
EXTT9=
PLAYORDER=
